# xmcd
#
# Track frame offsets: 
#        150
#        15887
#        37080
#
# Disc length: 749 seconds
#
# Revision: 1
# Processed by: cddbd v1.5.2PL0 Copyright (c) Steve Scherf et al.
# Submitted via: ExactAudioCopy v0.95b1
#
DISCID=1702eb03
DTITLE=The Mary Onettes - Void (EP)
DYEAR=2007
DGENRE=Indie
TTITLE0=Void
TTITLE1=Everyday And Today
TTITLE2=Translate
EXTD=
EXTT0=
EXTT1=
EXTT2=
PLAYORDER=
